<?xml version="1.0" encoding="UTF-8"?>
<!--
  Floraison · bande horizontale + cascade verticale fusionnees.
  Un seul jardin peint continu qui passe d'horizontal a vertical au niveau du coude
  (zone de transition x=1100-1500, densite maximale, fleurs ancrage scale 1.4x).
  ViewBox 1920x600. Mobile gere via media queries CSS (echelle reduite, cropping).
-->
<svg xmlns="http://www.w3.org/2000/svg" viewBox="0 0 1920 600" preserveAspectRatio="xMidYMin meet" role="img" aria-label="Composition florale aquarelle : pivoines, renoncules, anemones, marguerites, tulipes, branches de cerisier, sur trois rangees fondues en cascade verticale">
  <defs>
    <!-- ============================== -->
    <!-- WASH FILTER (halo aquarelle subtile, applique uniquement aux fonds des fleurs) -->
    <!-- ============================== -->
    <filter id="wash-soft" x="-15%" y="-15%" width="130%" height="130%">
      <feGaussianBlur stdDeviation="0.55"/>
    </filter>
    <filter id="wash-petal" x="-10%" y="-10%" width="120%" height="120%">
      <feGaussianBlur stdDeviation="0.32"/>
    </filter>

    <!-- ============================== -->
    <!-- PEONY SARAH BERNHARDT (rose poudre) -->
    <!-- ============================== -->
    <symbol id="peony-rose" viewBox="0 0 100 100">
      <!-- 1. Wash background (halo aquarelle leger) -->
      <ellipse cx="50" cy="52" rx="44" ry="42" fill="#F8C8D5" opacity="0.42" filter="url(#wash-soft)"/>
      <!-- 2. 8 outer bombed petals (crisp, color principale) -->
      <g fill="#F2A7B8" opacity="0.93">
        <path d="M50,52 C30,55 26,24 50,10 C74,24 70,55 50,52 Z"/>
        <path d="M50,52 C30,55 26,24 50,10 C74,24 70,55 50,52 Z" transform="rotate(45 50 52)"/>
        <path d="M50,52 C30,55 26,24 50,10 C74,24 70,55 50,52 Z" transform="rotate(90 50 52)"/>
        <path d="M50,52 C30,55 26,24 50,10 C74,24 70,55 50,52 Z" transform="rotate(135 50 52)"/>
        <path d="M50,52 C30,55 26,24 50,10 C74,24 70,55 50,52 Z" transform="rotate(180 50 52)"/>
        <path d="M50,52 C30,55 26,24 50,10 C74,24 70,55 50,52 Z" transform="rotate(225 50 52)"/>
        <path d="M50,52 C30,55 26,24 50,10 C74,24 70,55 50,52 Z" transform="rotate(270 50 52)"/>
        <path d="M50,52 C30,55 26,24 50,10 C74,24 70,55 50,52 Z" transform="rotate(315 50 52)"/>
      </g>
      <!-- 3. 5 inner petals (rose plus sature, offset rotation pour effet entrelacement) -->
      <g fill="#E68FA7" opacity="0.88">
        <path d="M50,52 C40,54 38,32 50,22 C62,32 60,54 50,52 Z" transform="rotate(22 50 52)"/>
        <path d="M50,52 C40,54 38,32 50,22 C62,32 60,54 50,52 Z" transform="rotate(94 50 52)"/>
        <path d="M50,52 C40,54 38,32 50,22 C62,32 60,54 50,52 Z" transform="rotate(166 50 52)"/>
        <path d="M50,52 C40,54 38,32 50,22 C62,32 60,54 50,52 Z" transform="rotate(238 50 52)"/>
        <path d="M50,52 C40,54 38,32 50,22 C62,32 60,54 50,52 Z" transform="rotate(310 50 52)"/>
      </g>
      <!-- 4. Coeur sature -->
      <circle cx="50" cy="52" r="4.5" fill="#B96687" opacity="0.85"/>
      <circle cx="48" cy="51" r="1.6" fill="#7E3852" opacity="0.7"/>
    </symbol>

    <!-- ============================== -->
    <!-- PEONY CORAL CHARM (corail naissant) -->
    <!-- ============================== -->
    <symbol id="peony-coral" viewBox="0 0 100 100">
      <ellipse cx="50" cy="52" rx="44" ry="42" fill="#FAC5AC" opacity="0.42" filter="url(#wash-soft)"/>
      <g fill="#F5A68A" opacity="0.93">
        <path d="M50,52 C30,55 26,24 50,10 C74,24 70,55 50,52 Z"/>
        <path d="M50,52 C30,55 26,24 50,10 C74,24 70,55 50,52 Z" transform="rotate(45 50 52)"/>
        <path d="M50,52 C30,55 26,24 50,10 C74,24 70,55 50,52 Z" transform="rotate(90 50 52)"/>
        <path d="M50,52 C30,55 26,24 50,10 C74,24 70,55 50,52 Z" transform="rotate(135 50 52)"/>
        <path d="M50,52 C30,55 26,24 50,10 C74,24 70,55 50,52 Z" transform="rotate(180 50 52)"/>
        <path d="M50,52 C30,55 26,24 50,10 C74,24 70,55 50,52 Z" transform="rotate(225 50 52)"/>
        <path d="M50,52 C30,55 26,24 50,10 C74,24 70,55 50,52 Z" transform="rotate(270 50 52)"/>
        <path d="M50,52 C30,55 26,24 50,10 C74,24 70,55 50,52 Z" transform="rotate(315 50 52)"/>
      </g>
      <g fill="#EE8F6D" opacity="0.88">
        <path d="M50,52 C40,54 38,32 50,22 C62,32 60,54 50,52 Z" transform="rotate(22 50 52)"/>
        <path d="M50,52 C40,54 38,32 50,22 C62,32 60,54 50,52 Z" transform="rotate(94 50 52)"/>
        <path d="M50,52 C40,54 38,32 50,22 C62,32 60,54 50,52 Z" transform="rotate(166 50 52)"/>
        <path d="M50,52 C40,54 38,32 50,22 C62,32 60,54 50,52 Z" transform="rotate(238 50 52)"/>
        <path d="M50,52 C40,54 38,32 50,22 C62,32 60,54 50,52 Z" transform="rotate(310 50 52)"/>
      </g>
      <circle cx="50" cy="52" r="4.5" fill="#D87850" opacity="0.85"/>
      <circle cx="48" cy="51" r="1.6" fill="#A04F2E" opacity="0.7"/>
    </symbol>

    <!-- ============================== -->
    <!-- RENONCULE ORANGE (multi-rangs petits petales rondelets) -->
    <!-- ============================== -->
    <symbol id="ranunculus-orange" viewBox="0 0 100 100">
      <circle cx="50" cy="52" r="38" fill="#F8B783" opacity="0.4" filter="url(#wash-soft)"/>
      <!-- Anneau externe : 8 petales arrondis -->
      <g fill="#F08D3F" opacity="0.92">
        <path d="M50,52 C40,55 36,38 50,30 C64,38 60,55 50,52 Z"/>
        <path d="M50,52 C40,55 36,38 50,30 C64,38 60,55 50,52 Z" transform="rotate(45 50 52)"/>
        <path d="M50,52 C40,55 36,38 50,30 C64,38 60,55 50,52 Z" transform="rotate(90 50 52)"/>
        <path d="M50,52 C40,55 36,38 50,30 C64,38 60,55 50,52 Z" transform="rotate(135 50 52)"/>
        <path d="M50,52 C40,55 36,38 50,30 C64,38 60,55 50,52 Z" transform="rotate(180 50 52)"/>
        <path d="M50,52 C40,55 36,38 50,30 C64,38 60,55 50,52 Z" transform="rotate(225 50 52)"/>
        <path d="M50,52 C40,55 36,38 50,30 C64,38 60,55 50,52 Z" transform="rotate(270 50 52)"/>
        <path d="M50,52 C40,55 36,38 50,30 C64,38 60,55 50,52 Z" transform="rotate(315 50 52)"/>
      </g>
      <!-- Anneau median : 6 petales plus petits, sature -->
      <g fill="#D87A2D" opacity="0.9">
        <path d="M50,52 C44,53 42,40 50,36 C58,40 56,53 50,52 Z" transform="rotate(22 50 52)"/>
        <path d="M50,52 C44,53 42,40 50,36 C58,40 56,53 50,52 Z" transform="rotate(82 50 52)"/>
        <path d="M50,52 C44,53 42,40 50,36 C58,40 56,53 50,52 Z" transform="rotate(142 50 52)"/>
        <path d="M50,52 C44,53 42,40 50,36 C58,40 56,53 50,52 Z" transform="rotate(202 50 52)"/>
        <path d="M50,52 C44,53 42,40 50,36 C58,40 56,53 50,52 Z" transform="rotate(262 50 52)"/>
        <path d="M50,52 C44,53 42,40 50,36 C58,40 56,53 50,52 Z" transform="rotate(322 50 52)"/>
      </g>
      <!-- Coeur : tres dense, suggere bourgeon serre -->
      <circle cx="50" cy="52" r="6" fill="#A85D1F" opacity="0.85"/>
      <circle cx="49" cy="51" r="2.4" fill="#6E3C0F" opacity="0.78"/>
    </symbol>

    <!-- ============================== -->
    <!-- RENONCULE JAUNE -->
    <!-- ============================== -->
    <symbol id="ranunculus-yellow" viewBox="0 0 100 100">
      <circle cx="50" cy="52" r="38" fill="#F9DC85" opacity="0.4" filter="url(#wash-soft)"/>
      <g fill="#F4C430" opacity="0.92">
        <path d="M50,52 C40,55 36,38 50,30 C64,38 60,55 50,52 Z"/>
        <path d="M50,52 C40,55 36,38 50,30 C64,38 60,55 50,52 Z" transform="rotate(45 50 52)"/>
        <path d="M50,52 C40,55 36,38 50,30 C64,38 60,55 50,52 Z" transform="rotate(90 50 52)"/>
        <path d="M50,52 C40,55 36,38 50,30 C64,38 60,55 50,52 Z" transform="rotate(135 50 52)"/>
        <path d="M50,52 C40,55 36,38 50,30 C64,38 60,55 50,52 Z" transform="rotate(180 50 52)"/>
        <path d="M50,52 C40,55 36,38 50,30 C64,38 60,55 50,52 Z" transform="rotate(225 50 52)"/>
        <path d="M50,52 C40,55 36,38 50,30 C64,38 60,55 50,52 Z" transform="rotate(270 50 52)"/>
        <path d="M50,52 C40,55 36,38 50,30 C64,38 60,55 50,52 Z" transform="rotate(315 50 52)"/>
      </g>
      <g fill="#D9A91C" opacity="0.9">
        <path d="M50,52 C44,53 42,40 50,36 C58,40 56,53 50,52 Z" transform="rotate(22 50 52)"/>
        <path d="M50,52 C44,53 42,40 50,36 C58,40 56,53 50,52 Z" transform="rotate(82 50 52)"/>
        <path d="M50,52 C44,53 42,40 50,36 C58,40 56,53 50,52 Z" transform="rotate(142 50 52)"/>
        <path d="M50,52 C44,53 42,40 50,36 C58,40 56,53 50,52 Z" transform="rotate(202 50 52)"/>
        <path d="M50,52 C44,53 42,40 50,36 C58,40 56,53 50,52 Z" transform="rotate(262 50 52)"/>
        <path d="M50,52 C44,53 42,40 50,36 C58,40 56,53 50,52 Z" transform="rotate(322 50 52)"/>
      </g>
      <circle cx="50" cy="52" r="6" fill="#A37710" opacity="0.85"/>
      <circle cx="49" cy="51" r="2.4" fill="#6E4E08" opacity="0.78"/>
    </symbol>

    <!-- ============================== -->
    <!-- ANEMONE DE CAEN (rouge profond, coeur noir bleu nuit) -->
    <!-- ============================== -->
    <symbol id="anemone" viewBox="0 0 100 100">
      <!-- Wash leger rouge -->
      <ellipse cx="50" cy="52" rx="40" ry="40" fill="#E07A8E" opacity="0.32" filter="url(#wash-soft)"/>
      <!-- 6 petales ovales plats, profond -->
      <g fill="#C1294A" opacity="0.93">
        <path d="M50,52 C40,52 32,40 32,28 C32,16 40,8 50,8 C60,8 68,16 68,28 C68,40 60,52 50,52 Z"/>
        <path d="M50,52 C40,52 32,40 32,28 C32,16 40,8 50,8 C60,8 68,16 68,28 C68,40 60,52 50,52 Z" transform="rotate(60 50 52)"/>
        <path d="M50,52 C40,52 32,40 32,28 C32,16 40,8 50,8 C60,8 68,16 68,28 C68,40 60,52 50,52 Z" transform="rotate(120 50 52)"/>
        <path d="M50,52 C40,52 32,40 32,28 C32,16 40,8 50,8 C60,8 68,16 68,28 C68,40 60,52 50,52 Z" transform="rotate(180 50 52)"/>
        <path d="M50,52 C40,52 32,40 32,28 C32,16 40,8 50,8 C60,8 68,16 68,28 C68,40 60,52 50,52 Z" transform="rotate(240 50 52)"/>
        <path d="M50,52 C40,52 32,40 32,28 C32,16 40,8 50,8 C60,8 68,16 68,28 C68,40 60,52 50,52 Z" transform="rotate(300 50 52)"/>
      </g>
      <!-- Touche petale plus profond a la base (rouge sombre) -->
      <g fill="#8A1A35" opacity="0.6">
        <ellipse cx="50" cy="40" rx="6" ry="9" transform="rotate(0 50 52)"/>
        <ellipse cx="50" cy="40" rx="6" ry="9" transform="rotate(60 50 52)"/>
        <ellipse cx="50" cy="40" rx="6" ry="9" transform="rotate(120 50 52)"/>
        <ellipse cx="50" cy="40" rx="6" ry="9" transform="rotate(180 50 52)"/>
        <ellipse cx="50" cy="40" rx="6" ry="9" transform="rotate(240 50 52)"/>
        <ellipse cx="50" cy="40" rx="6" ry="9" transform="rotate(300 50 52)"/>
      </g>
      <!-- Coeur noir bleu nuit, signature de l'anemone -->
      <circle cx="50" cy="52" r="10" fill="#1A1A2E" opacity="0.95"/>
      <!-- Etamines suggerees : petits points autour du coeur noir -->
      <g fill="#1A1A2E" opacity="0.8">
        <circle cx="50" cy="40" r="1.2"/>
        <circle cx="58" cy="46" r="1.2"/>
        <circle cx="58" cy="58" r="1.2"/>
        <circle cx="50" cy="64" r="1.2"/>
        <circle cx="42" cy="58" r="1.2"/>
        <circle cx="42" cy="46" r="1.2"/>
      </g>
    </symbol>

    <!-- ============================== -->
    <!-- TULIPE TARDIVE ORANGE (3 petales allonges, cup) -->
    <!-- ============================== -->
    <symbol id="tulip-orange" viewBox="0 0 100 100">
      <ellipse cx="50" cy="55" rx="22" ry="38" fill="#F8B783" opacity="0.4" filter="url(#wash-soft)"/>
      <!-- Petale arriere gauche -->
      <path d="M35,80 C28,75 24,55 28,30 C32,15 40,10 44,18 C46,30 46,60 42,78 C40,84 38,84 35,80 Z" fill="#E8782B" opacity="0.88"/>
      <!-- Petale arriere droit -->
      <path d="M65,80 C72,75 76,55 72,30 C68,15 60,10 56,18 C54,30 54,60 58,78 C60,84 62,84 65,80 Z" fill="#E8782B" opacity="0.88"/>
      <!-- Petale central avant (plus clair, flamme rose) -->
      <path d="M50,82 C40,80 36,55 38,28 C40,12 50,8 50,8 C50,8 60,12 62,28 C64,55 60,80 50,82 Z" fill="#F08D3F" opacity="0.94"/>
      <!-- Stries roses (flammees) -->
      <path d="M48,28 C46,42 47,60 50,75 C53,60 54,42 52,28 C50,22 50,22 48,28 Z" fill="#F2A7B8" opacity="0.55"/>
      <!-- Base et tige naissance -->
      <path d="M48,82 C48,88 47,92 46,95 C49,93 51,93 54,95 C53,92 52,88 52,82 Z" fill="#9CB382" opacity="0.85"/>
    </symbol>

    <!-- ============================== -->
    <!-- TULIPE ROSE (variante pink/blanc) -->
    <!-- ============================== -->
    <symbol id="tulip-pink" viewBox="0 0 100 100">
      <ellipse cx="50" cy="55" rx="22" ry="38" fill="#F8D5DD" opacity="0.45" filter="url(#wash-soft)"/>
      <path d="M35,80 C28,75 24,55 28,30 C32,15 40,10 44,18 C46,30 46,60 42,78 C40,84 38,84 35,80 Z" fill="#E89AAC" opacity="0.88"/>
      <path d="M65,80 C72,75 76,55 72,30 C68,15 60,10 56,18 C54,30 54,60 58,78 C60,84 62,84 65,80 Z" fill="#E89AAC" opacity="0.88"/>
      <path d="M50,82 C40,80 36,55 38,28 C40,12 50,8 50,8 C50,8 60,12 62,28 C64,55 60,80 50,82 Z" fill="#F2A7B8" opacity="0.94"/>
      <path d="M48,28 C46,42 47,60 50,75 C53,60 54,42 52,28 C50,22 50,22 48,28 Z" fill="#FBF3E3" opacity="0.55"/>
      <path d="M48,82 C48,88 47,92 46,95 C49,93 51,93 54,95 C53,92 52,88 52,82 Z" fill="#9CB382" opacity="0.85"/>
    </symbol>

    <!-- ============================== -->
    <!-- MARGUERITE (petales etroits radiaux, coeur jaune) -->
    <!-- ============================== -->
    <symbol id="daisy" viewBox="0 0 100 100">
      <circle cx="50" cy="52" r="34" fill="#FBF3E3" opacity="0.25" filter="url(#wash-soft)"/>
      <!-- 12 petales etroits, blanc casse sur ivoire -->
      <g fill="#FBF3E3" opacity="0.95" stroke="#E8DBC0" stroke-width="0.6">
        <path d="M50,50 C47,45 46,28 48,14 C49,8 51,8 52,14 C54,28 53,45 50,50 Z"/>
        <path d="M50,50 C47,45 46,28 48,14 C49,8 51,8 52,14 C54,28 53,45 50,50 Z" transform="rotate(30 50 50)"/>
        <path d="M50,50 C47,45 46,28 48,14 C49,8 51,8 52,14 C54,28 53,45 50,50 Z" transform="rotate(60 50 50)"/>
        <path d="M50,50 C47,45 46,28 48,14 C49,8 51,8 52,14 C54,28 53,45 50,50 Z" transform="rotate(90 50 50)"/>
        <path d="M50,50 C47,45 46,28 48,14 C49,8 51,8 52,14 C54,28 53,45 50,50 Z" transform="rotate(120 50 50)"/>
        <path d="M50,50 C47,45 46,28 48,14 C49,8 51,8 52,14 C54,28 53,45 50,50 Z" transform="rotate(150 50 50)"/>
        <path d="M50,50 C47,45 46,28 48,14 C49,8 51,8 52,14 C54,28 53,45 50,50 Z" transform="rotate(180 50 50)"/>
        <path d="M50,50 C47,45 46,28 48,14 C49,8 51,8 52,14 C54,28 53,45 50,50 Z" transform="rotate(210 50 50)"/>
        <path d="M50,50 C47,45 46,28 48,14 C49,8 51,8 52,14 C54,28 53,45 50,50 Z" transform="rotate(240 50 50)"/>
        <path d="M50,50 C47,45 46,28 48,14 C49,8 51,8 52,14 C54,28 53,45 50,50 Z" transform="rotate(270 50 50)"/>
        <path d="M50,50 C47,45 46,28 48,14 C49,8 51,8 52,14 C54,28 53,45 50,50 Z" transform="rotate(300 50 50)"/>
        <path d="M50,50 C47,45 46,28 48,14 C49,8 51,8 52,14 C54,28 53,45 50,50 Z" transform="rotate(330 50 50)"/>
      </g>
      <!-- Coeur jaune marguerite sature -->
      <circle cx="50" cy="50" r="8" fill="#F4C430" opacity="0.95"/>
      <circle cx="50" cy="50" r="8" fill="#D9A91C" opacity="0.55"/>
      <!-- Petits points centraux suggerent les akenes -->
      <g fill="#A37710" opacity="0.85">
        <circle cx="48" cy="48" r="0.9"/>
        <circle cx="52" cy="48" r="0.9"/>
        <circle cx="50" cy="51" r="0.9"/>
        <circle cx="47" cy="52" r="0.9"/>
        <circle cx="53" cy="52" r="0.9"/>
      </g>
    </symbol>

    <!-- ============================== -->
    <!-- FLEUR DE CERISIER (5 petales arrondis pale, coeur jaune) -->
    <!-- ============================== -->
    <symbol id="cherry-blossom" viewBox="0 0 100 100">
      <circle cx="50" cy="50" r="32" fill="#FBDFE6" opacity="0.4" filter="url(#wash-soft)"/>
      <!-- 5 petales arrondis (notch leger au bout pour rappel sakura) -->
      <g fill="#FBE2EB" opacity="0.94" stroke="#F2A7B8" stroke-width="0.7">
        <path d="M50,52 C38,52 28,38 32,22 C36,12 50,10 50,16 C50,10 64,12 68,22 C72,38 62,52 50,52 Z"/>
        <path d="M50,52 C38,52 28,38 32,22 C36,12 50,10 50,16 C50,10 64,12 68,22 C72,38 62,52 50,52 Z" transform="rotate(72 50 52)"/>
        <path d="M50,52 C38,52 28,38 32,22 C36,12 50,10 50,16 C50,10 64,12 68,22 C72,38 62,52 50,52 Z" transform="rotate(144 50 52)"/>
        <path d="M50,52 C38,52 28,38 32,22 C36,12 50,10 50,16 C50,10 64,12 68,22 C72,38 62,52 50,52 Z" transform="rotate(216 50 52)"/>
        <path d="M50,52 C38,52 28,38 32,22 C36,12 50,10 50,16 C50,10 64,12 68,22 C72,38 62,52 50,52 Z" transform="rotate(288 50 52)"/>
      </g>
      <!-- Etamines fines centrales -->
      <g stroke="#D9A91C" stroke-width="0.8" stroke-linecap="round" opacity="0.85">
        <line x1="50" y1="52" x2="46" y2="42"/>
        <line x1="50" y1="52" x2="50" y2="40"/>
        <line x1="50" y1="52" x2="54" y2="42"/>
        <line x1="50" y1="52" x2="58" y2="48"/>
        <line x1="50" y1="52" x2="42" y2="48"/>
      </g>
      <g fill="#F4C430" opacity="0.95">
        <circle cx="46" cy="42" r="1.5"/>
        <circle cx="50" cy="40" r="1.5"/>
        <circle cx="54" cy="42" r="1.5"/>
        <circle cx="58" cy="48" r="1.4"/>
        <circle cx="42" cy="48" r="1.4"/>
      </g>
      <circle cx="50" cy="52" r="2.5" fill="#F4C430" opacity="0.92"/>
    </symbol>

    <!-- ============================== -->
    <!-- FEUILLE LANCE (vert tendre, paire de formes legerement asymetrique) -->
    <!-- ============================== -->
    <symbol id="leaf-a" viewBox="0 0 50 100">
      <path d="M25,5 C12,18 8,42 14,68 C18,85 23,96 25,96 C27,96 32,85 36,68 C42,42 38,18 25,5 Z" fill="#9CB382" opacity="0.85"/>
      <path d="M25,10 C25,30 25,60 25,90" stroke="#6F8556" stroke-width="0.8" stroke-linecap="round" opacity="0.7" fill="none"/>
    </symbol>
    <symbol id="leaf-b" viewBox="0 0 50 100">
      <path d="M25,8 C15,22 10,46 14,72 C17,86 23,94 25,94 C27,94 31,86 36,72 C42,46 35,22 25,8 Z" fill="#88A06F" opacity="0.82"/>
      <path d="M25,14 C26,32 27,60 25,88" stroke="#5D7048" stroke-width="0.8" stroke-linecap="round" opacity="0.65" fill="none"/>
    </symbol>

    <!-- ============================== -->
    <!-- BRINDILLE / TIGE (pour la cascade) -->
    <!-- ============================== -->
    <symbol id="stem-curve" viewBox="0 0 50 200">
      <path d="M25,4 C20,40 32,80 22,130 C18,160 28,180 24,196" stroke="#88A06F" stroke-width="1.6" fill="none" stroke-linecap="round" opacity="0.85"/>
    </symbol>
  </defs>

  <!-- ====================================================== -->
  <!-- COMPOSITION : un seul jardin continu, pas deux blocs   -->
  <!-- ====================================================== -->

  <!-- === FEUILLAGE FOND (back-leaves) : pose en premier, derriere les fleurs === -->
  <g class="back-leaves" opacity="0.75">
    <use href="#leaf-a" x="10"   y="40"  width="34" height="80" transform="rotate(-25 27 80)"/>
    <use href="#leaf-b" x="95"   y="35"  width="30" height="72" transform="rotate(35 110 70)"/>
    <use href="#leaf-a" x="180"  y="30"  width="32" height="76" transform="rotate(-12 196 70)"/>
    <use href="#leaf-b" x="285"  y="38"  width="28" height="68" transform="rotate(45 299 70)"/>
    <use href="#leaf-a" x="380"  y="28"  width="34" height="80" transform="rotate(-30 397 70)"/>
    <use href="#leaf-b" x="475"  y="42"  width="30" height="72" transform="rotate(20 490 78)"/>
    <use href="#leaf-a" x="575"  y="30"  width="32" height="76" transform="rotate(-18 591 68)"/>
    <use href="#leaf-b" x="680"  y="40"  width="30" height="72" transform="rotate(28 695 76)"/>
    <use href="#leaf-a" x="780"  y="32"  width="32" height="76" transform="rotate(-22 796 70)"/>
    <use href="#leaf-b" x="880"  y="40"  width="30" height="72" transform="rotate(30 895 76)"/>
    <use href="#leaf-a" x="980"  y="30"  width="34" height="80" transform="rotate(-20 997 70)"/>
    <use href="#leaf-b" x="1080" y="48"  width="30" height="72" transform="rotate(40 1095 84)"/>
    <!-- Coude : feuillage dense -->
    <use href="#leaf-a" x="1150" y="30"  width="36" height="86" transform="rotate(-30 1168 73)"/>
    <use href="#leaf-b" x="1280" y="50"  width="34" height="80" transform="rotate(15 1297 90)"/>
    <use href="#leaf-a" x="1380" y="20"  width="36" height="86" transform="rotate(-40 1398 63)"/>
    <use href="#leaf-b" x="1480" y="60"  width="34" height="80" transform="rotate(25 1497 100)"/>
    <!-- Cascade : feuillage descendant -->
    <use href="#leaf-a" x="1520" y="170" width="32" height="76" transform="rotate(60 1536 208)"/>
    <use href="#leaf-b" x="1700" y="200" width="30" height="72" transform="rotate(-30 1715 236)"/>
    <use href="#leaf-a" x="1620" y="280" width="32" height="76" transform="rotate(75 1636 318)"/>
    <use href="#leaf-b" x="1790" y="320" width="30" height="72" transform="rotate(-50 1805 356)"/>
    <use href="#leaf-a" x="1560" y="380" width="32" height="76" transform="rotate(80 1576 418)"/>
    <use href="#leaf-b" x="1700" y="420" width="30" height="72" transform="rotate(-65 1715 456)"/>
    <use href="#leaf-a" x="1810" y="440" width="30" height="72" transform="rotate(90 1825 476)"/>
  </g>

  <!-- === RANGEE 1 (top, y=10-50) === -->
  <g class="band-row-1">
    <use href="#peony-rose"        x="0"    y="10"  width="120" height="120"/>
    <use href="#anemone"           x="100"  y="20"  width="85"  height="85"/>
    <use href="#ranunculus-orange" x="170"  y="15"  width="75"  height="75"/>
    <use href="#daisy"             x="240"  y="22"  width="65"  height="65"/>
    <use href="#peony-coral"       x="295"  y="5"   width="115" height="115"/>
    <use href="#tulip-orange"      x="395"  y="-5"  width="85"  height="115"/>
    <use href="#ranunculus-yellow" x="470"  y="20"  width="70"  height="70"/>
    <use href="#cherry-blossom"    x="535"  y="25"  width="55"  height="55"/>
    <use href="#peony-rose"        x="585"  y="10"  width="105" height="105"/>
    <use href="#anemone"           x="675"  y="18"  width="80"  height="80"/>
    <use href="#ranunculus-orange" x="745"  y="25"  width="65"  height="65"/>
    <use href="#daisy"             x="805"  y="20"  width="58"  height="58"/>
    <use href="#peony-coral"       x="855"  y="10"  width="105" height="105"/>
    <use href="#tulip-pink"        x="945"  y="0"   width="75"  height="105"/>
    <use href="#ranunculus-yellow" x="1015" y="22"  width="65"  height="65"/>
    <use href="#cherry-blossom"    x="1075" y="28"  width="55"  height="55"/>
  </g>

  <!-- === RANGEE 2 (middle, y=60-110) === -->
  <g class="band-row-2">
    <use href="#anemone"           x="35"   y="70"  width="75"  height="75"/>
    <use href="#ranunculus-yellow" x="100"  y="75"  width="65"  height="65"/>
    <use href="#peony-rose"        x="155"  y="60"  width="95"  height="95"/>
    <use href="#daisy"             x="245"  y="78"  width="55"  height="55"/>
    <use href="#tulip-orange"      x="295"  y="55"  width="75"  height="105"/>
    <use href="#cherry-blossom"    x="365"  y="75"  width="48"  height="48"/>
    <use href="#peony-coral"       x="405"  y="68"  width="90"  height="90"/>
    <use href="#ranunculus-orange" x="490"  y="72"  width="62"  height="62"/>
    <use href="#daisy"             x="545"  y="76"  width="55"  height="55"/>
    <use href="#peony-rose"        x="595"  y="60"  width="98"  height="98"/>
    <use href="#anemone"           x="685"  y="72"  width="72"  height="72"/>
    <use href="#ranunculus-yellow" x="750"  y="75"  width="62"  height="62"/>
    <use href="#tulip-pink"        x="810"  y="55"  width="72"  height="100"/>
    <use href="#cherry-blossom"    x="875"  y="80"  width="48"  height="48"/>
    <use href="#peony-coral"       x="920"  y="65"  width="92"  height="92"/>
    <use href="#anemone"           x="1010" y="74"  width="70"  height="70"/>
    <use href="#ranunculus-orange" x="1075" y="76"  width="62"  height="62"/>
  </g>

  <!-- === RANGEE 3 (bottom, y=120-170) === -->
  <g class="band-row-3">
    <use href="#ranunculus-orange" x="20"   y="135" width="60"  height="60"/>
    <use href="#peony-rose"        x="75"   y="120" width="85"  height="85"/>
    <use href="#daisy"             x="155"  y="135" width="55"  height="55"/>
    <use href="#cherry-blossom"    x="200"  y="142" width="48"  height="48"/>
    <use href="#anemone"           x="245"  y="130" width="65"  height="65"/>
    <use href="#peony-coral"       x="305"  y="125" width="78"  height="78"/>
    <use href="#tulip-orange"      x="380"  y="118" width="65"  height="90"/>
    <use href="#ranunculus-yellow" x="445"  y="135" width="58"  height="58"/>
    <use href="#daisy"             x="498"  y="138" width="50"  height="50"/>
    <use href="#peony-rose"        x="540"  y="122" width="82"  height="82"/>
    <use href="#anemone"           x="615"  y="135" width="62"  height="62"/>
    <use href="#ranunculus-orange" x="670"  y="138" width="58"  height="58"/>
    <use href="#peony-coral"       x="720"  y="125" width="78"  height="78"/>
    <use href="#tulip-pink"        x="795"  y="120" width="65"  height="90"/>
    <use href="#daisy"             x="855"  y="140" width="50"  height="50"/>
    <use href="#cherry-blossom"    x="900"  y="138" width="48"  height="48"/>
    <use href="#peony-rose"        x="940"  y="122" width="82"  height="82"/>
    <use href="#ranunculus-yellow" x="1015" y="138" width="58"  height="58"/>
    <use href="#anemone"           x="1065" y="132" width="62"  height="62"/>
  </g>

  <!-- === ZONE COUDE (x=1100-1500, densite maximale, fleurs ancrage scale 1.3-1.4x) === -->
  <!-- C'est ici que la bande horizontale fusionne avec la cascade verticale. -->
  <!-- Pas d'air entre les zones - les fleurs ancrage chevauchent les deux. -->
  <g class="elbow-zone">
    <!-- Anchor 1 : grande pivoine coral debut du coude -->
    <use href="#peony-coral"       x="1095" y="-10" width="170" height="170"/>
    <!-- Anchor 2 : grande pivoine rose, decalee plus bas -->
    <use href="#peony-rose"        x="1175" y="75"  width="160" height="160"/>
    <!-- Anchor 3 : anemone large -->
    <use href="#anemone"           x="1300" y="20"  width="135" height="135"/>
    <!-- Anchor 4 : grande renoncule orange -->
    <use href="#ranunculus-orange" x="1290" y="120" width="125" height="125"/>
    <!-- Anchor 5 : pivoine coral pour relier vers la cascade -->
    <use href="#peony-coral"       x="1395" y="80"  width="155" height="155"/>
    <!-- Anchor 6 : grande pivoine rose qui bascule vers le bas (debut cascade) -->
    <use href="#peony-rose"        x="1440" y="170" width="145" height="145"/>
    <!-- Mid-density fillers dans le coude -->
    <use href="#tulip-orange"      x="1180" y="0"   width="85"  height="120"/>
    <use href="#ranunculus-yellow" x="1255" y="65"  width="80"  height="80"/>
    <use href="#daisy"             x="1255" y="170" width="58"  height="58"/>
    <use href="#cherry-blossom"    x="1380" y="160" width="55"  height="55"/>
    <use href="#tulip-pink"        x="1340" y="155" width="68"  height="95"/>
    <use href="#anemone"           x="1490" y="40"  width="78"  height="78"/>
    <use href="#daisy"             x="1495" y="135" width="55"  height="55"/>
    <use href="#ranunculus-orange" x="1525" y="80"  width="72"  height="72"/>
    <use href="#cherry-blossom"    x="1520" y="180" width="50"  height="50"/>
  </g>

  <!-- === CASCADE VERTICALE (x=1500-1900, descente y=180 -> y=550) === -->
  <!-- Densite decroissante du haut vers le bas, queue en feuilles vert tendre -->
  <g class="cascade-zone">
    <!-- Cascade top y=180-280 (toujours dense, pas de coupure avec le coude) -->
    <use href="#peony-rose"        x="1500" y="240" width="125" height="125"/>
    <use href="#anemone"           x="1620" y="220" width="95"  height="95"/>
    <use href="#tulip-orange"      x="1700" y="190" width="80"  height="110"/>
    <use href="#ranunculus-yellow" x="1775" y="240" width="75"  height="75"/>
    <use href="#cherry-blossom"    x="1840" y="215" width="55"  height="55"/>
    <use href="#daisy"             x="1655" y="255" width="55"  height="55"/>

    <!-- Cascade middle y=290-380 (densite moyenne) -->
    <use href="#peony-coral"       x="1530" y="335" width="110" height="110"/>
    <use href="#ranunculus-orange" x="1640" y="345" width="78"  height="78"/>
    <use href="#anemone"           x="1730" y="310" width="82"  height="82"/>
    <use href="#tulip-pink"        x="1810" y="305" width="68"  height="95"/>
    <use href="#daisy"             x="1660" y="360" width="55"  height="55"/>
    <use href="#cherry-blossom"    x="1770" y="380" width="48"  height="48"/>

    <!-- Cascade bottom y=390-490 (densite plus faible, tiges visibles) -->
    <use href="#peony-rose"        x="1560" y="420" width="98"  height="98"/>
    <use href="#tulip-pink"        x="1660" y="400" width="68"  height="95"/>
    <use href="#cherry-blossom"    x="1770" y="430" width="55"  height="55"/>
    <use href="#ranunculus-yellow" x="1820" y="450" width="65"  height="65"/>
    <use href="#daisy"             x="1700" y="475" width="50"  height="50"/>

    <!-- Queue : fleurs eparses, feuilles et tiges qui descendent -->
    <use href="#anemone"           x="1600" y="500" width="60"  height="60"/>
    <use href="#cherry-blossom"    x="1700" y="520" width="48"  height="48"/>
    <use href="#daisy"             x="1790" y="510" width="48"  height="48"/>
  </g>

  <!-- === TIGES ET FEUILLES TRAILING (queue de cascade qui pend) === -->
  <g class="trailing-stems" opacity="0.8">
    <use href="#stem-curve" x="1560" y="380" width="40" height="180"/>
    <use href="#stem-curve" x="1700" y="410" width="40" height="180" transform="rotate(8 1720 500)"/>
    <use href="#stem-curve" x="1830" y="400" width="40" height="180" transform="rotate(-6 1850 490)"/>
    <use href="#leaf-a" x="1580" y="530" width="28" height="65" transform="rotate(105 1594 562)"/>
    <use href="#leaf-b" x="1700" y="555" width="26" height="60" transform="rotate(-80 1713 585)"/>
    <use href="#leaf-a" x="1810" y="545" width="28" height="65" transform="rotate(120 1824 577)"/>
    <use href="#leaf-b" x="1880" y="500" width="26" height="60" transform="rotate(-100 1893 530)"/>
  </g>

  <!-- === FEUILLES AVANT (sur les fleurs, donne le sentiment d'entrelacement organique) === -->
  <g class="front-leaves" opacity="0.7">
    <use href="#leaf-a" x="50"   y="90"  width="24" height="56" transform="rotate(20 62 118)"/>
    <use href="#leaf-b" x="220"  y="85"  width="22" height="52" transform="rotate(-30 231 111)"/>
    <use href="#leaf-a" x="430"  y="95"  width="24" height="56" transform="rotate(15 442 123)"/>
    <use href="#leaf-b" x="620"  y="85"  width="22" height="52" transform="rotate(-25 631 111)"/>
    <use href="#leaf-a" x="850"  y="92"  width="24" height="56" transform="rotate(22 862 120)"/>
    <use href="#leaf-b" x="1050" y="88"  width="22" height="52" transform="rotate(-20 1061 114)"/>
    <use href="#leaf-a" x="1240" y="100" width="26" height="60" transform="rotate(15 1253 130)"/>
    <use href="#leaf-b" x="1420" y="110" width="24" height="56" transform="rotate(-35 1432 138)"/>
    <use href="#leaf-a" x="1580" y="280" width="22" height="52" transform="rotate(40 1591 306)"/>
    <use href="#leaf-b" x="1720" y="370" width="22" height="52" transform="rotate(-45 1731 396)"/>
  </g>
</svg>
